<svg
    xmlns="http://www.w3.org/2000/svg"
    viewBox="0 0 24 24"
    id="vector">
    <path
        id="path"
        d="M 18.3 5.71 C 17.91 5.32 17.28 5.32 16.89 5.71 L 12 10.59 L 7.11 5.7 C 6.72 5.31 6.09 5.31 5.7 5.7 C 5.31 6.09 5.31 6.72 5.7 7.11 L 10.59 12 L 5.7 16.89 C 5.31 17.28 5.31 17.91 5.7 18.3 C 6.09 18.69 6.72 18.69 7.11 18.3 L 12 13.41 L 16.89 18.3 C 17.28 18.69 17.91 18.69 18.3 18.3 C 18.69 17.91 18.69 17.28 18.3 16.89 L 13.41 12 L 18.3 7.11 C 18.68 6.73 18.68 6.09 18.3 5.71 Z"
        fill="#ffffff"/>
</svg>
