<svg
    xmlns="http://www.w3.org/2000/svg"
    viewBox="0 0 24 24"
    id="vector">
    <path
        id="path"
        d="M 5.5 7.7 C 5.8 7.4 6.3 7.3 6.8 7.6 C 7.9 8.2 9.4 8 10.4 7.1 L 13.9 3.6 L 13.2 2.9 C 12.8 2.5 12.8 1.9 13.2 1.5 C 13.6 1.1 14.2 1.1 14.6 1.5 L 21.7 8.6 C 22.1 9 22.1 9.6 21.7 10 C 21.3 10.4 20.7 10.4 20.3 10 L 19.6 9.3 L 16.1 12.8 C 15.1 13.8 15 15.3 15.6 16.4 C 15.8 16.8 15.8 17.3 15.5 17.7 L 15.4 17.8 C 15 18.2 14.4 18.2 14 17.8 L 10.5 14.3 L 5.5 19.2 C 5.1 19.6 4.5 19.6 4.1 19.2 C 3.7 18.8 3.7 18.2 4.1 17.8 L 9.1 12.9 L 5.4 9.2 C 5.1 8.8 5.1 8.1 5.5 7.7 L 5.5 7.7 Z"
        fill="#ffffff"
        fill-rule="evenodd"/>
</svg>
